<svg version="1.1" id="Layer_1" xmlns="http://www.w3.org/2000/svg" xmlns:xlink="http://www.w3.org/1999/xlink" x="0px" y="0px"
	 width="100%" viewBox="0 0 1080 1080" enable-background="new 0 0 1080 1080" xml:space="preserve">
<path fill="#FFFFFF" opacity="1.000000" stroke="none" 
	d="
M491.000000,1081.000000 
	C327.352173,1081.000000 164.204330,1081.000000 1.028243,1081.000000 
	C1.028243,721.060364 1.028243,361.120728 1.028243,1.090556 
	C360.898041,1.090556 720.796143,1.090556 1080.847168,1.090556 
	C1080.847168,360.999939 1080.847168,720.999939 1080.847168,1081.000000 
	C884.453613,1081.000000 687.976807,1081.000000 491.000000,1081.000000 
M348.142303,248.961670 
	C348.142303,462.543945 348.142303,676.126221 348.142303,889.666870 
	C493.132294,889.666870 637.525574,889.666870 781.876831,889.666870 
	C781.876831,854.213257 781.876831,819.093140 781.876831,783.377075 
	C679.629395,783.377075 577.587769,783.377075 475.519135,783.377075 
	C475.519135,724.543762 475.519135,666.308044 475.519135,607.696777 
	C562.791443,607.696777 649.726807,607.696777 736.876099,607.696777 
	C736.876099,572.960144 736.876099,538.600952 736.876099,503.739868 
	C649.487183,503.739868 562.435852,503.739868 475.428497,503.739868 
	C475.428497,453.456146 475.428497,403.675476 475.428497,353.336304 
	C575.390686,353.336304 675.107300,353.336304 774.735107,353.336304 
	C774.735107,317.687714 774.735107,282.599518 774.735107,247.163879 
	C772.610840,247.163879 770.809570,247.163879 769.008240,247.163879 
	C630.682617,247.163879 492.357025,247.163498 354.031403,247.168457 
	C352.366516,247.168518 350.701630,247.237259 348.503418,247.101471 
	C348.419342,247.412552 348.335236,247.723633 348.142303,248.961670 
z"/>
<path fill="#316304" opacity="1.000000" stroke="none" 
	d="
M349.036743,247.273926 
	C350.701630,247.237259 352.366516,247.168518 354.031403,247.168457 
	C492.357025,247.163498 630.682617,247.163879 769.008240,247.163879 
	C770.809570,247.163879 772.610840,247.163879 774.735107,247.163879 
	C774.735107,282.599518 774.735107,317.687714 774.735107,353.336304 
	C675.107300,353.336304 575.390686,353.336304 475.428497,353.336304 
	C475.428497,403.675476 475.428497,453.456146 475.428497,503.739868 
	C562.435852,503.739868 649.487183,503.739868 736.876099,503.739868 
	C736.876099,538.600952 736.876099,572.960144 736.876099,607.696777 
	C649.726807,607.696777 562.791443,607.696777 475.519135,607.696777 
	C475.519135,666.308044 475.519135,724.543762 475.519135,783.377075 
	C577.587769,783.377075 679.629395,783.377075 781.876831,783.377075 
	C781.876831,819.093140 781.876831,854.213257 781.876831,889.666870 
	C637.525574,889.666870 493.132294,889.666870 348.142303,889.666870 
	C348.142303,676.126221 348.142303,462.543945 348.381561,248.436188 
	C348.857788,247.762695 348.996429,247.550430 349.036743,247.273926 
z"/>
<path fill="#5B8337" opacity="1.000000" stroke="none" 
	d="
M348.770081,247.187698 
	C348.996429,247.550430 348.857788,247.762695 348.435974,247.972717 
	C348.335236,247.723633 348.419342,247.412552 348.770081,247.187698 
z"/>
</svg>