<svg version="1.1" id="Layer_1" xmlns="http://www.w3.org/2000/svg" xmlns:xlink="http://www.w3.org/1999/xlink" x="0px" y="0px"
	 width="100%" viewBox="0 0 500 500" enable-background="new 0 0 500 500" xml:space="preserve">
<path fill="transparent" opacity="1.000000" stroke="none" 
	d="
M1.000000,123.000000 
	C1.000000,82.010109 1.000000,41.520226 1.000000,1.015168 
	C167.614944,1.015168 334.229889,1.015168 500.922424,1.015168 
	C500.922424,167.573288 500.922424,334.146637 500.922424,500.859985 
	C334.333405,500.859985 167.666718,500.859985 1.000000,500.859985 
	C1.000000,375.103333 1.000000,249.301666 1.000000,123.000000 
M387.954834,21.005489 
	C378.995117,21.053240 370.035400,21.100992 360.132965,21.055698 
	C345.739197,21.090788 331.345398,21.125875 316.030273,21.015825 
	C312.197357,21.011097 308.364410,21.000448 304.531494,21.002523 
	C244.370224,21.035074 184.208954,21.069265 123.355659,21.000715 
	C122.891144,21.028229 122.426636,21.055742 121.116974,21.039074 
	C118.746933,21.361774 116.376892,21.684475 113.208740,22.373497 
	C113.139259,22.865833 113.008911,23.358166 113.008881,23.850506 
	C113.000198,174.195938 112.998016,324.541382 113.041092,474.886810 
	C113.041466,476.196472 113.653191,477.505981 114.908768,478.898834 
	C216.113571,478.929138 317.318390,478.963196 418.523193,478.952179 
	C419.939850,478.952026 421.356445,478.386169 422.834045,477.424530 
	C422.824524,477.203674 422.815002,476.982849 422.901672,475.859283 
	C422.921814,453.078339 422.962372,430.297394 422.916870,407.516571 
	C422.913757,405.971802 422.262939,404.428345 421.503937,402.129822 
	C419.677277,402.086792 417.850677,402.006836 416.023987,402.006073 
	C345.673859,401.976379 275.323730,401.953918 205.010773,401.990479 
	C205.010773,401.990479 205.070206,401.952484 205.015640,401.022766 
	C204.996811,360.581177 204.977982,320.139587 205.048523,279.449677 
	C205.048523,279.449677 204.946411,279.206268 205.877579,279.016174 
	C265.930511,279.008301 325.983459,279.007996 386.036377,278.952423 
	C387.668671,278.950928 389.300446,278.353363 390.984589,277.093414 
	C390.996033,254.669022 391.029602,232.244583 390.985504,209.820297 
	C390.980988,207.511505 391.831299,204.501816 387.045563,204.023651 
	C326.357239,203.999893 265.668915,203.976120 204.978561,204.040527 
	C204.978561,204.040527 205.066711,204.043488 205.004028,203.099258 
	C205.005783,168.069092 205.007538,133.038940 205.494537,97.947998 
	C205.494537,97.947998 205.972641,97.845169 206.915619,97.930153 
	C224.715500,97.952728 242.515411,98.004128 260.315277,97.992462 
	C312.550354,97.958206 364.785400,97.898880 417.798248,97.489792 
	C417.858887,73.188759 417.929688,48.887730 417.935913,24.586685 
	C417.936127,23.774464 417.283783,22.962074 417.078003,22.075607 
	C417.078003,22.075607 417.005615,21.932346 416.794800,21.698061 
	C416.456635,21.569639 416.220367,21.688992 415.138855,22.088303 
	C408.764557,22.054722 402.390228,22.021141 395.809265,21.709454 
	C395.535736,21.801954 395.262207,21.894455 394.159821,22.035957 
	C392.776611,22.021402 391.393433,22.006847 389.757172,21.543423 
	C389.462677,21.388514 389.168182,21.233604 387.954834,21.005489 
z"/>
<path fill="#316304" opacity="1.000000" stroke="none" 
	d="
M390.010223,21.992290 
	C391.393433,22.006847 392.776611,22.021402 394.831055,22.014700 
	C395.673523,21.991482 395.844727,21.989521 396.015930,21.987560 
	C402.390228,22.021141 408.764557,22.054722 415.842957,22.046907 
	C416.547058,22.005512 417.005615,21.932346 417.005615,21.932346 
	C417.005615,21.932346 417.078003,22.075607 417.025940,22.471870 
	C416.937225,23.587671 416.900635,24.307211 416.679810,25.391731 
	C416.335266,26.735516 416.036499,27.714121 416.035065,28.693155 
	C416.005005,49.333984 415.990997,69.974907 416.042755,90.615639 
	C416.046387,92.063843 416.584534,93.510696 416.913757,95.279472 
	C416.920929,96.029373 416.888428,96.457977 416.396912,96.911674 
	C348.229218,96.958229 280.520508,96.971481 212.811813,97.036591 
	C210.531845,97.038780 208.252350,97.563835 205.972641,97.845169 
	C205.972641,97.845169 205.494537,97.947998 205.020676,98.287140 
	C204.308258,100.451920 204.069702,102.277550 203.650635,104.461075 
	C203.314117,106.131332 203.023087,107.443581 203.021927,108.756081 
	C202.995773,138.535461 202.987473,168.314880 203.038925,198.094193 
	C203.041702,199.704880 203.595001,201.314636 204.053314,203.145081 
	C204.498642,203.591385 204.782684,203.817444 205.066711,204.043488 
	C205.066711,204.043488 204.978561,204.040527 205.318893,204.239426 
	C207.795334,204.632797 209.931305,204.995514 212.067566,204.997238 
	C269.700562,205.043808 327.333557,205.053360 385.127319,205.378540 
	C389.602600,207.331772 390.110626,210.718369 390.070770,214.852554 
	C389.902405,232.323425 390.005859,249.796860 389.995667,267.269348 
	C389.990509,276.106628 389.108337,276.994019 380.282440,276.994965 
	C325.535278,277.000641 270.788116,277.013031 216.041061,276.949799 
	C213.443130,276.946808 210.846695,275.998627 208.248215,275.991699 
	C207.167023,275.988800 206.082306,277.301636 204.968903,278.312927 
	C204.941208,278.808533 204.943802,279.007385 204.946411,279.206268 
	C204.946411,279.206268 205.048523,279.449677 204.760681,279.756104 
	C204.266678,280.404236 204.060516,280.745911 203.670990,281.445648 
	C203.326309,283.282898 203.025208,284.761963 203.024109,286.241241 
	C202.996765,323.043365 202.988770,359.845551 203.037613,396.647583 
	C203.039978,398.427917 203.592026,400.207489 204.185089,402.027802 
	C204.678101,402.029633 204.874146,401.991058 205.070206,401.952484 
	C205.070206,401.952484 205.010773,401.990479 205.025452,402.256531 
	C205.370697,402.735718 205.701294,402.948853 206.397461,403.345612 
	C209.075119,403.686859 211.387115,403.981140 213.699295,403.982330 
	C282.797729,404.017731 351.896179,404.024109 421.144440,404.211304 
	C421.505981,404.613373 421.736359,404.818237 422.004333,405.336365 
	C422.009827,406.116577 421.996368,406.562622 421.775726,407.364197 
	C421.380341,409.689941 421.032959,411.659790 421.028625,413.630341 
	C420.987183,432.587555 421.037689,451.545044 420.961395,470.502014 
	C420.951538,472.951965 420.371185,475.399628 419.583374,477.868774 
	C415.949982,477.926025 412.788330,477.994293 409.626709,477.995026 
	C311.764374,478.017517 213.902023,478.033447 115.941833,477.723572 
	C115.563110,464.039459 115.308868,450.681458 114.969452,437.325653 
	C114.924263,435.547333 114.446938,433.779999 114.107910,431.678772 
	C114.086899,430.907593 114.127701,430.465240 114.424103,429.905426 
	C114.508804,428.851227 114.337906,427.914490 114.101624,426.582642 
	C114.076683,425.123260 114.117134,424.058929 114.335434,422.638947 
	C114.394547,418.857483 114.275803,415.431702 114.092957,411.540771 
	C114.068344,396.715027 114.107826,382.354431 114.330856,367.625793 
	C114.677986,365.777863 114.983421,364.298126 114.984428,362.818176 
	C115.010674,324.331757 115.016754,285.845306 114.968941,247.358932 
	C114.966728,245.574341 114.433311,243.790405 114.084961,241.540802 
	C114.015106,226.123444 113.984894,211.171402 114.004875,196.219421 
	C114.044617,166.484589 114.111977,136.749802 114.488342,106.811058 
	C114.977676,98.703934 115.159439,90.800926 115.266014,82.896896 
	C115.270042,82.597893 114.546097,82.289062 114.092560,81.522583 
	C114.070297,75.702194 114.116867,70.344055 114.343246,64.617691 
	C114.406784,58.503944 114.290520,52.758411 114.108459,46.599754 
	C114.084602,44.795971 114.126541,43.405312 114.487473,41.812550 
	C115.560745,35.723167 116.315033,29.835894 117.141434,23.385719 
	C118.525894,23.271152 120.264633,23.127266 122.471802,22.987476 
	C188.954895,22.985437 254.969559,22.979305 321.454620,22.980450 
	C334.289459,22.984991 346.653870,22.982258 359.485107,22.982529 
	C366.413849,22.994133 372.878967,23.126715 379.336365,22.959154 
	C382.576355,22.875080 385.802155,22.244629 389.014008,21.915604 
	C388.993622,21.969933 388.885193,21.928596 389.166229,21.948250 
	C389.634888,21.976032 389.822540,21.984161 390.010223,21.992290 
z"/>
<path fill="#ADCA96" opacity="1.000000" stroke="none" 
	d="
M114.147301,367.993835 
	C114.107826,382.354431 114.068344,396.715027 114.029274,411.995422 
	C114.072311,416.275024 114.114944,419.634827 114.157578,422.994629 
	C114.117134,424.058929 114.076683,425.123260 114.038193,426.960938 
	C114.082932,428.497192 114.125717,429.260040 114.168503,430.022888 
	C114.127701,430.465240 114.086899,430.907593 114.043762,432.144073 
	C114.063728,447.943146 114.086029,462.948090 114.050629,478.164856 
	C113.992943,478.376678 113.979485,478.815552 113.979485,478.815552 
	C113.653191,477.505981 113.041466,476.196472 113.041092,474.886810 
	C112.998016,324.541382 113.000198,174.195938 113.008881,23.850506 
	C113.008911,23.358166 113.139259,22.865833 113.622345,22.658045 
	C114.080124,29.299948 114.124298,35.657303 114.168480,42.014656 
	C114.126541,43.405312 114.084602,44.795971 114.042549,47.063572 
	C114.082771,53.622314 114.123108,59.304111 114.163437,64.985909 
	C114.116867,70.344055 114.070297,75.702194 114.024948,81.988808 
	C114.073418,90.949844 114.120674,98.982422 114.167938,107.014992 
	C114.111977,136.749802 114.044617,166.484589 114.004875,196.219421 
	C113.984894,211.171402 114.015106,226.123444 114.018349,242.005875 
	C114.001877,253.566086 113.966644,264.195892 113.981834,274.825653 
	C114.026207,305.881714 114.090698,336.937775 114.147301,367.993835 
z"/>
<path fill="#4C6F31" opacity="1.000000" stroke="none" 
	d="
M114.444122,478.857178 
	C113.979485,478.815552 113.992943,478.376678 114.371170,478.200714 
	C115.179489,478.033295 115.609581,478.041809 116.039680,478.050354 
	C213.902023,478.033447 311.764374,478.017517 409.626709,477.995026 
	C412.788330,477.994293 415.949982,477.926025 419.920105,477.925720 
	C421.410065,478.002899 422.091583,478.043610 422.773071,478.084351 
	C421.356445,478.386169 419.939850,478.952026 418.523193,478.952179 
	C317.318390,478.963196 216.113571,478.929138 114.444122,478.857178 
z"/>
<path fill="#335811" opacity="1.000000" stroke="none" 
	d="
M204.999176,278.016174 
	C206.082306,277.301636 207.167023,275.988800 208.248215,275.991699 
	C210.846695,275.998627 213.443130,276.946808 216.041061,276.949799 
	C270.788116,277.013031 325.535278,277.000641 380.282440,276.994965 
	C389.108337,276.994019 389.990509,276.106628 389.995667,267.269348 
	C390.005859,249.796860 389.902405,232.323425 390.070770,214.852554 
	C390.110626,210.718369 389.602600,207.331772 385.449280,205.339783 
	C386.400024,204.697433 387.189606,204.403183 387.979218,204.108948 
	C391.831299,204.501816 390.980988,207.511505 390.985504,209.820297 
	C391.029602,232.244583 390.996033,254.669022 390.496063,277.532654 
	C328.338074,277.986664 266.668640,278.001434 204.999176,278.016174 
z"/>
<path fill="#BACCAC" opacity="1.000000" stroke="none" 
	d="
M206.031876,403.162018 
	C205.701294,402.948853 205.370697,402.735718 205.006851,402.226562 
	C275.323730,401.953918 345.673859,401.976379 416.023987,402.006073 
	C417.850677,402.006836 419.677277,402.086792 421.722961,402.470734 
	C421.941956,402.811646 421.869232,402.782471 421.417664,402.867981 
	C357.649384,402.963409 294.332733,402.966980 231.016068,402.991089 
	C222.687988,402.994263 214.359940,403.102448 206.031876,403.162018 
z"/>
<path fill="#405E25" opacity="1.000000" stroke="none" 
	d="
M206.444122,97.887665 
	C208.252350,97.563835 210.531845,97.038780 212.811813,97.036591 
	C280.520508,96.971481 348.229218,96.958229 416.447144,97.151268 
	C416.956390,97.365776 417.020477,97.849365 417.020477,97.849365 
	C364.785400,97.898880 312.550354,97.958206 260.315277,97.992462 
	C242.515411,98.004128 224.715500,97.952728 206.444122,97.887665 
z"/>
<path fill="#2E5014" opacity="1.000000" stroke="none" 
	d="
M320.984222,22.973173 
	C254.969559,22.979305 188.954895,22.985437 122.467056,22.670841 
	C121.983292,21.927826 121.972710,21.505539 121.962120,21.083254 
	C122.426636,21.055742 122.891144,21.028229 123.928436,21.415895 
	C136.656876,21.884548 148.812546,21.986876 160.968185,21.983017 
	C212.937088,21.966530 264.905975,21.918711 317.288330,21.919548 
	C318.807068,22.012135 319.912415,22.067492 321.008972,22.335413 
	C321.000183,22.547977 320.984222,22.973173 320.984222,22.973173 
z"/>
<path fill="#D1E9C4" opacity="1.000000" stroke="none" 
	d="
M316.874878,21.882318 
	C264.905975,21.918711 212.937088,21.966530 160.968185,21.983017 
	C148.812546,21.986876 136.656876,21.884548 124.274452,21.467077 
	C184.208954,21.069265 244.370224,21.035074 304.531494,21.002523 
	C308.364410,21.000448 312.197357,21.011097 316.478577,21.269346 
	C316.926880,21.522867 316.874878,21.882318 316.874878,21.882318 
z"/>
<path fill="#B6CDA1" opacity="1.000000" stroke="none" 
	d="
M204.968903,278.312927 
	C266.668640,278.001434 328.338074,277.986664 390.470001,278.002838 
	C389.300446,278.353363 387.668671,278.950928 386.036377,278.952423 
	C325.983459,279.007996 265.930511,279.008301 205.411987,279.111206 
	C204.943802,279.007385 204.941208,278.808533 204.968903,278.312927 
z"/>
<path fill="#49672F" opacity="1.000000" stroke="none" 
	d="
M387.512390,204.066299 
	C387.189606,204.403183 386.400024,204.697433 385.288513,205.030426 
	C327.333557,205.053360 269.700562,205.043808 212.067566,204.997238 
	C209.931305,204.995514 207.795334,204.632797 205.319916,204.195343 
	C265.668915,203.976120 326.357239,203.999893 387.512390,204.066299 
z"/>
<path fill="#698D4B" opacity="1.000000" stroke="none" 
	d="
M203.854340,281.087585 
	C204.060516,280.745911 204.266678,280.404236 204.715988,279.880280 
	C204.977982,320.139587 204.996811,360.581177 205.042923,401.487610 
	C204.874146,401.991058 204.678101,402.029633 204.220612,401.561890 
	C203.924225,361.066254 203.889282,321.076935 203.854340,281.087585 
z"/>
<path fill="#698D4B" opacity="1.000000" stroke="none" 
	d="
M203.831146,104.103180 
	C204.069702,102.277550 204.308258,100.451920 204.778046,98.317535 
	C205.007538,133.038940 205.005783,168.069092 205.035370,203.571381 
	C204.782684,203.817444 204.498642,203.591385 204.088135,202.684631 
	C203.918137,169.370331 203.874649,136.736755 203.831146,104.103180 
z"/>
<path fill="#7E9566" opacity="1.000000" stroke="none" 
	d="
M417.409363,97.669579 
	C417.020477,97.849365 416.956390,97.365776 416.906158,97.126183 
	C416.888428,96.457977 416.920929,96.029373 416.965607,94.816437 
	C416.939850,71.030327 416.901947,48.028538 416.864014,25.026752 
	C416.900635,24.307211 416.937225,23.587671 416.954742,22.508947 
	C417.283783,22.962074 417.936127,23.774464 417.935913,24.586685 
	C417.929688,48.887730 417.858887,73.188759 417.409363,97.669579 
z"/>
<path fill="#4C6F31" opacity="1.000000" stroke="none" 
	d="
M421.982910,407.008636 
	C421.996368,406.562622 422.009827,406.116577 421.993652,405.092712 
	C421.964081,404.514862 421.920258,404.029144 421.912781,403.717285 
	C421.893280,403.197754 421.881256,402.990112 421.869232,402.782471 
	C421.869232,402.782471 421.941956,402.811646 421.927673,402.847961 
	C422.262939,404.428345 422.913757,405.971802 422.916870,407.516571 
	C422.962372,430.297394 422.921814,453.078339 422.669647,475.966736 
	C422.289185,474.266693 422.014374,472.459351 422.011566,470.651642 
	C421.978394,449.437347 421.986053,428.222992 421.982910,407.008636 
z"/>
<path fill="#285601" opacity="1.000000" stroke="none" 
	d="
M421.775726,407.364197 
	C421.986053,428.222992 421.978394,449.437347 422.011566,470.651642 
	C422.014374,472.459351 422.289185,474.266693 422.621582,476.418091 
	C422.815002,476.982849 422.824524,477.203674 422.803558,477.754456 
	C422.091583,478.043610 421.410065,478.002899 420.391846,477.905273 
	C420.371185,475.399628 420.951538,472.951965 420.961395,470.502014 
	C421.037689,451.545044 420.987183,432.587555 421.028625,413.630341 
	C421.032959,411.659790 421.380341,409.689941 421.775726,407.364197 
z"/>
<path fill="#2E580D" opacity="1.000000" stroke="none" 
	d="
M121.539551,21.061165 
	C121.972710,21.505539 121.983292,21.927826 121.998627,22.666746 
	C120.264633,23.127266 118.525894,23.271152 117.141434,23.385719 
	C116.315033,29.835894 115.560745,35.723167 114.487473,41.812550 
	C114.124298,35.657303 114.080124,29.299948 114.021393,22.474884 
	C116.376892,21.684475 118.746933,21.361774 121.539551,21.061165 
z"/>
<path fill="#698D4B" opacity="1.000000" stroke="none" 
	d="
M317.288330,21.919548 
	C316.874878,21.882318 316.926880,21.522867 316.939270,21.341915 
	C331.345398,21.125875 345.739197,21.090788 360.606812,21.288055 
	C361.080688,21.520414 361.138794,21.887857 360.775269,21.918108 
	C359.929199,22.008265 359.446625,22.068169 358.499390,22.085140 
	C345.695740,22.069086 333.356720,22.095966 321.017731,22.122849 
	C319.912415,22.067492 318.807068,22.012135 317.288330,21.919548 
z"/>
<path fill="#D1E9C4" opacity="1.000000" stroke="none" 
	d="
M361.138794,21.887857 
	C361.138794,21.887857 361.080688,21.520414 361.078186,21.334579 
	C370.035400,21.100992 378.995117,21.053240 388.456421,21.254015 
	C388.957977,21.502541 388.885193,21.928596 388.885193,21.928596 
	C388.885193,21.928596 388.993622,21.969933 388.538605,21.968544 
	C379.101990,21.940723 370.120392,21.914289 361.138794,21.887857 
z"/>
<path fill="#2E5014" opacity="1.000000" stroke="none" 
	d="
M416.900208,21.815205 
	C417.005615,21.932346 416.547058,22.005512 416.316528,22.030815 
	C416.220367,21.688992 416.456635,21.569639 416.900208,21.815205 
z"/>
<path fill="#2E5014" opacity="1.000000" stroke="none" 
	d="
M395.912598,21.848507 
	C395.844727,21.989521 395.673523,21.991482 395.245483,21.990200 
	C395.262207,21.894455 395.535736,21.801954 395.912598,21.848507 
z"/>
<path fill="#2E5014" opacity="1.000000" stroke="none" 
	d="
M389.166229,21.948250 
	C388.885193,21.928596 388.957977,21.502541 388.915833,21.290617 
	C389.168182,21.233604 389.462677,21.388514 389.883698,21.767857 
	C389.822540,21.984161 389.634888,21.976032 389.166229,21.948250 
z"/>
<path fill="#2E580D" opacity="1.000000" stroke="none" 
	d="
M421.417664,402.867981 
	C421.881256,402.990112 421.893280,403.197754 421.681641,403.715393 
	C421.457977,404.025391 420.994629,404.035034 420.994629,404.035034 
	C351.896179,404.024109 282.797729,404.017731 213.699295,403.982330 
	C211.387115,403.981140 209.075119,403.686859 206.397461,403.345612 
	C214.359940,403.102448 222.687988,402.994263 231.016068,402.991089 
	C294.332733,402.966980 357.649384,402.963409 421.417664,402.867981 
z"/>
<path fill="#2E580D" opacity="1.000000" stroke="none" 
	d="
M114.330856,367.625793 
	C114.090698,336.937775 114.026207,305.881714 113.981834,274.825653 
	C113.966644,264.195892 114.001877,253.566086 114.080688,242.471222 
	C114.433311,243.790405 114.966728,245.574341 114.968941,247.358932 
	C115.016754,285.845306 115.010674,324.331757 114.984428,362.818176 
	C114.983421,364.298126 114.677986,365.777863 114.330856,367.625793 
z"/>
<path fill="#285601" opacity="1.000000" stroke="none" 
	d="
M203.670990,281.445648 
	C203.889282,321.076935 203.924225,361.066254 203.923645,401.521515 
	C203.592026,400.207489 203.039978,398.427917 203.037613,396.647583 
	C202.988770,359.845551 202.996765,323.043365 203.024109,286.241241 
	C203.025208,284.761963 203.326309,283.282898 203.670990,281.445648 
z"/>
<path fill="#285601" opacity="1.000000" stroke="none" 
	d="
M203.650635,104.461075 
	C203.874649,136.736755 203.918137,169.370331 203.926834,202.464355 
	C203.595001,201.314636 203.041702,199.704880 203.038925,198.094193 
	C202.987473,168.314880 202.995773,138.535461 203.021927,108.756081 
	C203.023087,107.443581 203.314117,106.131332 203.650635,104.461075 
z"/>
<path fill="#2E580D" opacity="1.000000" stroke="none" 
	d="
M416.679810,25.391731 
	C416.901947,48.028538 416.939850,71.030327 416.925964,94.495148 
	C416.584534,93.510696 416.046387,92.063843 416.042755,90.615639 
	C415.990997,69.974907 416.005005,49.333984 416.035065,28.693155 
	C416.036499,27.714121 416.335266,26.735516 416.679810,25.391731 
z"/>
<path fill="#2E580D" opacity="1.000000" stroke="none" 
	d="
M115.941833,477.723572 
	C115.609581,478.041809 115.179489,478.033295 114.428856,477.988892 
	C114.086029,462.948090 114.063728,447.943146 114.105583,432.472900 
	C114.446938,433.779999 114.924263,435.547333 114.969452,437.325653 
	C115.308868,450.681458 115.563110,464.039459 115.941833,477.723572 
z"/>
<path fill="#2E580D" opacity="1.000000" stroke="none" 
	d="
M114.488342,106.811058 
	C114.120674,98.982422 114.073418,90.949844 114.093781,82.451050 
	C114.546097,82.289062 115.270042,82.597893 115.266014,82.896896 
	C115.159439,90.800926 114.977676,98.703934 114.488342,106.811058 
z"/>
<path fill="#285601" opacity="1.000000" stroke="none" 
	d="
M321.008972,22.335411 
	C333.356720,22.095966 345.695740,22.069086 358.514465,22.297810 
	C358.994202,22.553411 359.018311,22.979525 359.018311,22.979525 
	C346.653870,22.982258 334.289459,22.984991 321.454620,22.980450 
	C320.984222,22.973173 321.000183,22.547977 321.008972,22.335411 
z"/>
<path fill="#2E5014" opacity="1.000000" stroke="none" 
	d="
M359.485107,22.982529 
	C359.018311,22.979525 358.994202,22.553411 358.979126,22.340744 
	C359.446625,22.068169 359.929199,22.008265 360.775269,21.918108 
	C370.120392,21.914289 379.101990,21.940723 388.558990,21.914215 
	C385.802155,22.244629 382.576355,22.875080 379.336365,22.959154 
	C372.878967,23.126715 366.413849,22.994133 359.485107,22.982529 
z"/>
<path fill="#2E580D" opacity="1.000000" stroke="none" 
	d="
M114.343246,64.617691 
	C114.123108,59.304111 114.082771,53.622314 114.108345,47.476700 
	C114.290520,52.758411 114.406784,58.503944 114.343246,64.617691 
z"/>
<path fill="#2E580D" opacity="1.000000" stroke="none" 
	d="
M114.335434,422.638947 
	C114.114944,419.634827 114.072311,416.275024 114.093369,412.460571 
	C114.275803,415.431702 114.394547,418.857483 114.335434,422.638947 
z"/>
<path fill="#2E580D" opacity="1.000000" stroke="none" 
	d="
M114.424103,429.905426 
	C114.125717,429.260040 114.082932,428.497192 114.103577,427.356049 
	C114.337906,427.914490 114.508804,428.851227 114.424103,429.905426 
z"/>
<path fill="#285601" opacity="1.000000" stroke="none" 
	d="
M421.144440,404.211304 
	C420.994629,404.035034 421.457977,404.025391 421.689117,404.027283 
	C421.920258,404.029144 421.964081,404.514862 421.974731,404.758484 
	C421.736359,404.818237 421.505981,404.613373 421.144440,404.211304 
z"/>
</svg>